<?xml version="1.0" encoding="utf-8"?>
<!-- Generator: Adobe Illustrator 16.0.0, SVG Export Plug-In . SVG Version: 6.00 Build 0)  -->
<!DOCTYPE svg PUBLIC "-//W3C//DTD SVG 1.1//EN" "http://www.w3.org/Graphics/SVG/1.1/DTD/svg11.dtd">
<svg version="1.1" id="Layer_1" xmlns="http://www.w3.org/2000/svg" xmlns:xlink="http://www.w3.org/1999/xlink" x="0px" y="0px"
	 width="127.56px" height="193.18px" viewBox="0 0 127.56 193.18" enable-background="new 0 0 127.56 193.18" xml:space="preserve">
<g>
	<g>
		<path fill="#565C66" d="M57.745,138.063c0,7.363-5.972,47.068-13.341,47.068c-7.36,0-13.329-39.709-13.329-47.068
			s5.971-13.335,13.329-13.335C51.774,124.728,57.745,130.703,57.745,138.063z"/>
		<path fill="#565C66" d="M102.427,138.063c0,7.363-5.971,47.068-13.339,47.068c-7.362,0-13.33-39.709-13.33-47.068
			s5.972-13.335,13.33-13.335C96.456,124.728,102.427,130.703,102.427,138.063z"/>
	</g>
	<g>
		<path fill="#FFCA76" d="M104.367,120.44c0,47.696-16.839,31.813-37.619,31.813c-20.776,0-37.621,15.884-37.621-31.813
			c0-27.269,16.85-49.375,37.621-49.375C87.522,71.066,104.367,93.175,104.367,120.44z"/>
		<path fill="#FFCA76" d="M79.716,82.338c4.258-3.785,12.576-1.382,18.587,5.367c6.001,6.752,32.097,43.048,27.85,46.84
			c-4.262,3.778-37.271-26.388-43.269-33.14C76.881,94.665,75.466,86.124,79.716,82.338z"/>
	</g>
	<path fill="#F9BD67" d="M66.748,132.928c-18.709,0-34.222,12.85-37.127-19.403c-0.318,1.928-0.494,4.206-0.494,6.92
		c0,47.696,16.844,31.813,37.62,31.813c20.78,0,37.619,15.884,37.619-31.813c0-2.714-0.176-4.992-0.494-6.92
		C100.971,145.777,85.462,132.928,66.748,132.928z"/>
	<path fill="#FF9255" d="M59.411,185.37c0,5.64-6.721,6.384-15.003,6.384c-8.282,0-15.002-0.742-15.002-6.384
		c0-5.641,6.721-13.405,15.002-13.405C52.689,171.965,59.411,179.729,59.411,185.37z"/>
	<path fill="#F47C40" d="M59.411,185.37c0,5.64-6.721,6.384-15.003,6.384c-8.282,0-15.002-0.742-15.002-6.384"/>
	<path fill="#FF9255" d="M104.096,185.37c0,5.64-6.721,6.384-15.003,6.384c-8.281,0-15.003-0.742-15.003-6.384
		c0-5.641,6.722-13.405,15.003-13.405C97.375,171.965,104.096,179.729,104.096,185.37z"/>
	<path fill="#F47C40" d="M104.096,185.37c0,5.64-6.721,6.384-15.003,6.384c-8.281,0-15.003-0.742-15.003-6.384"/>
	<path fill="#FFCA76" d="M70.7,88.721c-0.337-5.687-7.918-9.867-16.937-9.348c-9.017,0.53-53.134,7.744-52.819,13.428
		c0.342,5.689,45.018,7.695,54.032,7.166C63.984,99.441,71.029,94.406,70.7,88.721z"/>
	<circle fill="#A56B44" cx="66.748" cy="81.223" r="10.037"/>
	<path fill="#D8A17C" d="M115.432,48.338c0,23.788-21.797,35.747-48.679,35.747c-26.887,0-48.691-11.959-48.691-35.747
		c0-23.794,21.803-46.912,48.691-46.912C93.635,1.426,115.432,24.544,115.432,48.338z"/>
	<path id="SVGCleanerId_0_3_" fill="#C48960" d="M115.432,48.338c0,23.788-21.797,35.747-48.679,35.747
		c-26.887,0-48.691-11.959-48.691-35.747c0-23.794,21.804-42.206,48.691-42.206C93.635,6.132,115.432,24.544,115.432,48.338z"/>
	<g>
		<path id="SVGCleanerId_0_2_" fill="#C48960" d="M115.432,48.338c0,23.788-21.797,35.747-48.679,35.747
			c-26.887,0-48.691-11.959-48.691-35.747c0-23.794,21.804-42.206,48.691-42.206C93.635,6.132,115.432,24.544,115.432,48.338z"/>
	</g>
	<path fill="#BC8158" d="M115.432,48.338c0,23.788-21.797,35.747-48.679,35.747c-26.887,0-48.691-11.959-48.691-35.747"/>
	<path fill="#63391C" d="M113.87,37.433C108.506,17.953,89.471,1.426,66.753,1.426c-26.888,0-48.691,23.118-48.691,46.912
		c0,6.11,1.457,11.428,4.047,15.973c2.358-1.481,3.932-4.08,3.932-7.066c0-0.354-0.063-0.689-0.104-1.034
		c1.969-1.534,3.266-3.898,3.266-6.588c0-0.353-0.06-0.689-0.104-1.035c1.969-1.533,3.265-3.897,3.265-6.586
		c0-2.677-1.285-5.028-3.235-6.563c0.304-0.293,0.622-0.563,0.884-0.891c1.724,2.147,4.338,3.549,7.312,3.549
		c2.967,0,5.585-1.403,7.313-3.549c1.725,2.147,4.339,3.549,7.307,3.549c2.974,0,5.588-1.403,7.313-3.549
		c1.726,2.147,4.339,3.549,7.313,3.549c2.969,0,5.585-1.403,7.311-3.549c1.728,2.147,4.342,3.549,7.31,3.549
		c2.974,0,5.588-1.403,7.312-3.549c1.726,2.147,4.34,3.549,7.313,3.549c2.969,0,5.585-1.403,7.31-3.549
		c1.728,2.147,4.342,3.549,7.309,3.549C111.649,38.102,112.804,37.852,113.87,37.433z"/>
	<circle cx="48.553" cy="56.404" r="4.354"/>
	<path d="M52.907,56.403c0,2.412-1.951,4.356-4.356,4.356s-4.352-1.944-4.352-4.356"/>
	<circle cx="94.856" cy="56.404" r="4.354"/>
	<path d="M90.502,56.403c0,2.412,1.945,4.356,4.358,4.356c2.405,0,4.35-1.944,4.35-4.356"/>
	<g>
		<polygon fill="#CC9A0E" points="65.113,113.258 65.113,98.076 51.964,105.672 		"/>
		<polygon fill="#CC9A0E" points="49.719,109.567 49.719,118.154 49.719,124.753 62.86,117.159 		"/>
		<polygon fill="#CC9A0E" points="69.616,98.076 69.616,113.254 82.765,105.668 		"/>
		<polygon fill="#CC9A0E" points="69.616,136.242 82.765,128.646 69.616,121.059 		"/>
		<polygon fill="#CC9A0E" points="65.113,136.242 65.113,121.059 51.961,128.646 		"/>
		<polygon fill="#CC9A0E" points="71.868,117.159 85.02,124.753 85.02,118.152 85.02,109.567 		"/>
	</g>
</g>
</svg>
