<?xml version="1.0" encoding="utf-8"?>
<!-- Generator: Adobe Illustrator 16.0.0, SVG Export Plug-In . SVG Version: 6.00 Build 0)  -->
<!DOCTYPE svg PUBLIC "-//W3C//DTD SVG 1.1//EN" "http://www.w3.org/Graphics/SVG/1.1/DTD/svg11.dtd">
<svg version="1.1" id="Layer_1" xmlns="http://www.w3.org/2000/svg" xmlns:xlink="http://www.w3.org/1999/xlink" x="0px" y="0px"
	 width="93.54px" height="51.02px" viewBox="0 0 93.54 51.02" enable-background="new 0 0 93.54 51.02" xml:space="preserve">
<g>
	<g>
		<g>
			<rect x="83.962" y="32.324" fill="#8C5F50" width="2.35" height="9.4"/>
			<rect x="75.734" y="34.675" fill="#8C5F50" width="2.352" height="7.05"/>
		</g>
		<g>
			<path fill="#A0D755" d="M93.364,26.446c0,4.545-3.683,8.229-8.228,8.229c-4.543,0-8.227-3.684-8.227-8.229
				c0-10.577,3.684-22.33,8.227-22.33C89.682,4.116,93.364,15.87,93.364,26.446z"/>
			<path fill="#A0D755" d="M83.962,30.38c0,3.669-3.159,6.645-7.052,6.645c-3.896,0-7.052-2.976-7.052-6.645
				c0-8.544,3.156-18.037,7.052-18.037C80.803,12.343,83.962,21.836,83.962,30.38z"/>
		</g>
		<g>
			<path fill="#8CBE4B" d="M81.612,26.446c0-9.647,2.042-20.269,4.699-22.062c-0.384-0.174-0.775-0.269-1.175-0.269
				c-4.543,0-8.227,11.752-8.227,22.33c0,4.545,3.684,8.228,8.227,8.228c0.401,0,0.789-0.038,1.175-0.095
				C83.654,34.01,81.612,30.591,81.612,26.446z"/>
			<path fill="#8CBE4B" d="M74.559,30.38c0-7.71,1.503-16.169,3.464-17.751c-0.362-0.171-0.734-0.286-1.112-0.286
				c-3.895,0-7.052,9.493-7.052,18.037c0,3.669,3.157,6.645,7.052,6.645c0.378,0,0.75-0.036,1.112-0.091
				C76.062,36.43,74.559,33.692,74.559,30.38z"/>
		</g>
	</g>
	<g>
		<path fill="#E8E8E8" d="M17.688,44.488v-3.424c0-0.886-0.719-1.605-1.604-1.605l0,0c-0.885,0-1.603,0.72-1.603,1.605v4.55
			c0,0.712,0.577,1.289,1.289,1.289h3.592c0.312,0,0.565-0.252,0.565-0.563l0,0c0-1.023-0.828-1.852-1.85-1.852H17.688z"/>
		<path opacity="0.08" enable-background="new    " d="M17.688,44.488v-3.424c0-0.886-0.719-1.605-1.604-1.605l0,0
			c-0.885,0-1.603,0.72-1.603,1.605v4.55c0,0.712,0.577,1.289,1.289,1.289h3.592c0.312,0,0.565-0.252,0.565-0.563l0,0
			c0-1.023-0.828-1.852-1.85-1.852H17.688z"/>
		<path fill="#E8E8E8" d="M8.734,42.236c-3.766-1.346-6.126-4.869-6.172-8.647c-0.011-0.844-1.155-1.086-1.51-0.322
			c-0.121,0.26-0.231,0.528-0.33,0.803C-1.009,38.91,1.51,44.236,6.349,45.968L8.734,42.236z"/>
		<path fill="#4A5058" d="M2.562,33.589c-0.006-0.445-0.328-0.724-0.683-0.773c-0.019,0.051-0.039,0.103-0.057,0.154
			C0.13,37.701,2.501,42.898,7.13,44.745l1.604-2.509C4.968,40.891,2.608,37.367,2.562,33.589z"/>
		<path opacity="0.1" enable-background="new    " d="M4.596,39.281l-0.258,0.343c-0.869,1.145-1.451,2.477-1.704,3.883
			c0.989,1.075,2.244,1.936,3.715,2.461l2.385-3.731C7.044,41.633,5.638,40.59,4.596,39.281z"/>
		<path fill="#4A5058" d="M14.761,28.383h4.102c0.214,0,0.387-0.173,0.387-0.387v-1.007c0-0.743-0.225-1.468-0.646-2.081
			l-0.908-1.323c-0.426-0.62-1.341-0.62-1.767,0l-1.153,1.678c-0.261,0.382-0.401,0.833-0.401,1.293v1.439
			C14.375,28.21,14.548,28.383,14.761,28.383z"/>
		<path fill="#EDBCB9" d="M16.17,27.561h1.285c0.206,0,0.374-0.168,0.374-0.373v-0.406c0-0.339-0.094-0.671-0.268-0.951l-0.544-0.87
			c-0.095-0.149-0.312-0.149-0.406,0l-0.696,1.113c-0.077,0.121-0.116,0.262-0.116,0.404v0.709
			C15.798,27.393,15.964,27.561,16.17,27.561z"/>
		<path fill="#4A5058" d="M16.029,26.111h-3.837c-0.061-0.303-0.182-0.59-0.358-0.848l-1.153-1.678c-0.426-0.62-1.341-0.62-1.767,0
			l-0.91,1.323c-0.419,0.613-0.645,1.338-0.645,2.081v8.277c0,0.848-0.247,1.678-0.708,2.389L5.704,39.11
			c-0.962,1.479-1.473,3.202-1.473,4.968c0,1.187,0.966,2.148,2.153,2.148h6.637c2.041,0,3.694-1.654,3.694-3.693v-4.337h3.027
			v-7.886c0-0.332,0.449-0.657,0.377-0.966C19.682,27.49,18.017,26.111,16.029,26.111z"/>
		<path fill="#FFFFFF" d="M16.102,40.026c-0.645,0.021-1.147,0.57-1.147,1.217v1.473c0,1.345-1.089,2.436-2.436,2.436l0,0
			c-0.652,0-1.194,0.461-1.321,1.075h1.823c2.041,0,3.694-1.654,3.694-3.693v-2.362C16.534,40.07,16.325,40.018,16.102,40.026z"/>
		<path fill="#E8E8E8" d="M23.7,32.195h-3.471v-1.885c0-0.418-0.062-0.821-0.175-1.204c-0.397-0.261-0.884-0.416-1.411-0.416
			c-0.884,0-1.655,0.434-2.071,1.078c-0.416-0.645-1.187-1.078-2.071-1.078c-1.323,0-2.397,0.971-2.397,2.17
			c0,1.141,0.971,2.074,2.206,2.162v2.639c0,1.4,1.135,2.535,2.536,2.535h4.927c2.059,0,3.728-1.669,3.728-3.728v-0.474
			C25.5,33,24.694,32.195,23.7,32.195z"/>
		<g>
			<path fill="#4A5058" d="M14.824,31.941c-0.225,0-0.407-0.181-0.407-0.407v-0.604c0-0.226,0.182-0.409,0.407-0.409
				c0.224,0,0.407,0.184,0.407,0.409v0.604C15.23,31.761,15.048,31.941,14.824,31.941z"/>
			<path fill="#4A5058" d="M18.393,31.941c-0.225,0-0.407-0.181-0.407-0.407v-0.604c0-0.226,0.182-0.409,0.407-0.409
				c0.224,0,0.406,0.184,0.406,0.409v0.604C18.799,31.761,18.616,31.941,18.393,31.941z"/>
		</g>
		<path fill="#EDBCB9" d="M22.994,35.435c-0.375,0-0.679-0.305-0.679-0.679c0,0.374-0.303,0.679-0.677,0.679
			c-0.193,0-0.367-0.081-0.491-0.209v0.875c0,0.646,0.523,1.168,1.168,1.168c0.646,0,1.167-0.521,1.167-1.168v-0.875
			C23.36,35.354,23.185,35.435,22.994,35.435z"/>
		<path opacity="0.1" enable-background="new    " d="M22.314,36.418c-0.224,0-0.407-0.182-0.407-0.405v-1.257
			c0-0.225,0.183-0.407,0.407-0.407c0.225,0,0.407,0.183,0.407,0.407v1.257C22.721,36.236,22.54,36.418,22.314,36.418z"/>
		<g>
			<path fill="#4A5058" d="M23.672,34.349c-0.226,0-0.408,0.183-0.408,0.407c0,0.15-0.121,0.272-0.271,0.272
				c-0.151,0-0.272-0.122-0.272-0.272v-1.169h-0.813v1.169c0,0.15-0.121,0.272-0.271,0.272c-0.15,0-0.272-0.122-0.272-0.272
				c0-0.225-0.183-0.407-0.406-0.407c-0.225,0-0.406,0.183-0.406,0.407c0,0.598,0.486,1.085,1.084,1.085
				c0.257,0,0.492-0.09,0.677-0.24c0.186,0.15,0.422,0.24,0.678,0.24c0.599,0,1.084-0.487,1.084-1.085
				C24.078,34.532,23.896,34.349,23.672,34.349z"/>
			<path fill="#4A5058" d="M23.846,32.745l-0.357,0.426c-0.613,0.729-1.736,0.729-2.347,0l-0.357-0.426
				c-0.184-0.217-0.028-0.55,0.257-0.55h2.546C23.873,32.195,24.028,32.528,23.846,32.745z"/>
		</g>
		<path fill="#EDBCB9" d="M8.782,26.857V26.57c0-0.203,0.056-0.402,0.162-0.575l0.458-0.746c0.182-0.295,0.611-0.295,0.793,0
			l0.457,0.746c0.106,0.173,0.162,0.372,0.162,0.575l0,0c0,0.287-0.186,0.541-0.459,0.629l-0.762,0.247
			C9.191,27.576,8.782,27.277,8.782,26.857z"/>
		<g>
			<path fill="#E8E8E8" d="M13.795,44.488v-3.424c0-0.886-0.718-1.605-1.604-1.605l0,0c-0.886,0-1.604,0.72-1.604,1.605v4.55
				c0,0.712,0.577,1.289,1.289,1.289h3.592c0.312,0,0.565-0.252,0.565-0.563l0,0c0-1.023-0.829-1.852-1.85-1.852H13.795z"/>
			<path fill="#E8E8E8" d="M7.929,44.488H7.55l0.348-1.6c0.232-1.068-0.581-2.078-1.674-2.078l0,0c-1.35,0-2.517,0.941-2.803,2.26
				l-0.39,1.791c-0.229,1.049,0.572,2.042,1.648,2.042h4.534c0.313,0,0.566-0.252,0.566-0.563C9.78,45.316,8.95,44.488,7.929,44.488
				z"/>
		</g>
	</g>
</g>
</svg>
