<?xml version="1.0" encoding="utf-8"?>
<!-- Generator: Adobe Illustrator 16.0.0, SVG Export Plug-In . SVG Version: 6.00 Build 0)  -->
<!DOCTYPE svg PUBLIC "-//W3C//DTD SVG 1.1//EN" "http://www.w3.org/Graphics/SVG/1.1/DTD/svg11.dtd">
<svg version="1.1" id="Layer_1" xmlns="http://www.w3.org/2000/svg" xmlns:xlink="http://www.w3.org/1999/xlink" x="0px" y="0px"
	 width="45.35px" height="45.35px" viewBox="0 0 45.35 45.35" enable-background="new 0 0 45.35 45.35" xml:space="preserve">
<g>
	<path fill="#555E6B" d="M13.6,0.258H3.303c-0.836,0-1.515,0.679-1.515,1.516v41.117h13.328V1.773
		C15.115,0.937,14.437,0.258,13.6,0.258z"/>
	<path fill="#363C44" d="M15.355,45.092H1.398c-0.533,0-0.878-0.563-0.639-1.037l1.028-2.041h13.341l0.885,2.084
		C16.214,44.568,15.868,45.092,15.355,45.092z"/>
	<g>
		<rect x="7.65" y="0.258" fill="#414954" width="1.372" height="41.756"/>
		<rect x="1.788" y="14.249" fill="#414954" width="13.328" height="1.372"/>
	</g>
	<path fill="#434B56" d="M15.115,23.261c-0.512,0.283-0.946,0.706-1.24,1.237l-0.385,0.693c-2.681,4.83-4.022,10.291-3.883,15.814
		l0.025,1.008h5.483V23.261L15.115,23.261z"/>
	<path fill="#A7B7C6" d="M28.166,24.639h8.297c0.211,0,0.412-0.084,0.561-0.232l0,0c0.148-0.148,0.351-0.232,0.561-0.232h0.814
		c1.025,0,1.97,0.557,2.467,1.453l0.342,0.615c2.383,4.293,3.574,9.146,3.451,14.055l-0.036,1.449
		c-0.047,1.861-1.569,3.346-3.431,3.346l0,0c-1.526,0-2.869-1.008-3.295-2.473l-1.331-4.57c-0.349-1.193-1.442-2.014-2.685-2.014
		h-5.715h-5.714c-1.244,0-2.338,0.82-2.685,2.014l-1.331,4.57c-0.426,1.465-1.769,2.473-3.295,2.473l0,0
		c-1.862,0-3.384-1.484-3.431-3.346l-0.037-1.449c-0.123-4.908,1.069-9.762,3.451-14.055l0.342-0.615
		c0.498-0.896,1.442-1.453,2.467-1.453h0.814c0.21,0,0.412,0.084,0.561,0.232l0,0c0.149,0.148,0.351,0.232,0.561,0.232H28.166"/>
	<g>
		<path fill="#96ABBC" d="M16.216,38.049l-1.331,4.57c-0.247,0.848-0.802,1.543-1.52,1.977c0.518,0.314,1.126,0.496,1.775,0.496l0,0
			c1.526,0,2.869-1.008,3.295-2.473l1.331-4.57c0.347-1.193,1.441-2.014,2.685-2.014h-3.551
			C17.658,36.035,16.564,36.855,16.216,38.049z"/>
		<path fill="#96ABBC" d="M19.869,24.639c-0.21,0-0.412-0.084-0.561-0.232c-0.148-0.148-0.351-0.232-0.561-0.232h-0.814
			c-0.56,0-1.097,0.168-1.548,0.465H19.869L19.869,24.639z"/>
		<path fill="#96ABBC" d="M41.207,26.242l-0.342-0.615c-0.497-0.896-1.441-1.453-2.467-1.453h-0.814
			c-0.21,0-0.412,0.084-0.561,0.232s-0.35,0.232-0.561,0.232h-0.066c0.375,0.246,0.693,0.582,0.918,0.988l0.342,0.615
			c2.383,4.293,3.574,9.146,3.451,14.055l-0.036,1.449c-0.03,1.213-0.687,2.264-1.655,2.85c0.523,0.316,1.133,0.496,1.775,0.496l0,0
			c1.861,0,3.384-1.484,3.431-3.346l0.036-1.449C44.781,35.389,43.59,30.535,41.207,26.242z"/>
	</g>
	<path fill="#2E343A" d="M16.002,44.07l-0.874-2.057H9.631l0.016,0.623c0.024,0.941,0.384,1.797,0.963,2.455h4.716
		C15.617,44.652,15.712,44.508,16.002,44.07z"/>
	<circle fill="#CDD2DF" cx="22.913" cy="33.044" r="2.997"/>
	<path fill="#7A6CF7" d="M12.229,8.948c-0.379,0-0.686-0.308-0.686-0.687V3.964c0-0.38,0.307-0.687,0.686-0.687
		s0.686,0.307,0.686,0.687v4.298C12.915,8.641,12.608,8.948,12.229,8.948z"/>
	<circle fill="#788A9E" cx="22.083" cy="31.834" r="1.498"/>
	<circle fill="#CDD2DF" cx="33.419" cy="33.044" r="2.997"/>
	<circle fill="#788A9E" cx="34.345" cy="31.834" r="1.498"/>
	<g>
		<circle fill="#96ABBC" cx="18.102" cy="28.341" r="3.63"/>
		<circle fill="#96ABBC" cx="38.115" cy="28.455" r="3.516"/>
	</g>
	<path fill="#CDD2DF" d="M14.978,40.613c-1.58-0.414-2.553-1.063-3.307-1.549c-0.008,0.41-0.008,0.822,0.003,1.232l0.036,1.449
		c0.046,1.861,1.569,3.346,3.431,3.346l0,0c1.526,0,2.869-1.008,3.295-2.473l0.483-1.658C17.727,41.031,16.354,40.973,14.978,40.613
		z"/>
	<path fill="#BBC6D4" d="M18.435,42.619l0.483-1.658c-1.06,0.063-2.261,0.021-3.481-0.24l-0.552,1.898
		c-0.247,0.848-0.802,1.543-1.521,1.977c0.519,0.314,1.127,0.496,1.776,0.496C16.666,45.092,18.008,44.084,18.435,42.619z"/>
	<path fill="#CDD2DF" d="M41.354,40.613c1.58-0.414,2.555-1.063,3.308-1.549c0.008,0.41,0.008,0.822-0.003,1.232l-0.035,1.449
		c-0.047,1.861-1.569,3.346-3.432,3.346l0,0c-1.525,0-2.868-1.008-3.295-2.473l-0.482-1.658
		C38.605,41.031,39.978,40.973,41.354,40.613z"/>
	<path fill="#BBC6D4" d="M41.354,40.613c-0.085,0.021-0.17,0.043-0.255,0.063l-0.027,1.07c-0.03,1.211-0.687,2.264-1.655,2.85
		c0.523,0.316,1.133,0.496,1.775,0.496c1.862,0,3.385-1.484,3.432-3.346l0.035-1.449c0.011-0.41,0.011-0.822,0.003-1.232
		C43.908,39.551,42.934,40.199,41.354,40.613z"/>
	<path fill="#788A9E" d="M30.377,28.121h-4.158c-0.886,0-1.604-0.717-1.604-1.602v-1.881h7.365v1.881
		C31.98,27.404,31.263,28.121,30.377,28.121z"/>
	<circle cx="38.115" cy="27.112" r="0.687"/>
	<circle cx="38.115" cy="29.796" r="0.687"/>
	<circle cx="36.743" cy="28.424" r="0.686"/>
	<circle cx="39.487" cy="28.424" r="0.686"/>
	<circle cx="18.216" cy="27.119" r="0.686"/>
	<circle cx="18.216" cy="29.803" r="0.686"/>
	<circle cx="16.844" cy="28.431" r="0.687"/>
	<circle cx="19.588" cy="28.431" r="0.687"/>
</g>
</svg>
